# xmcd
#
# Track frame offsets:
#	150
#	22372
#	41841
#	57663
#	77577
#	97316
#	109616
#	126798
#	144340
#	155535
#	169864
#	186728
#	201054
#	220743
#	240253
#	254503
#	275765
#	294830
#
# Disc length: 4147 seconds
#
# Revision: 1
# Processed by: cddbd v1.5.2PL0 Copyright (c) Steve Scherf et al.
# Submitted via: audiograbber 1.83.01
#
DISCID=16103112
DTITLE=Pino Daniele - Tutto Pino Daniele (corretto)
DYEAR=2003
DGENRE=Pop
TTITLE0=Sono un cantante di blues
TTITLE1=Mare luna
TTITLE2=Bella mbriana
TTITLE3=Esce journo
TTITLE4=Quanno chiove
TTITLE5=Amici come prima
TTITLE6=Putesse essere allero
TTITLE7=O'ssaje come fa o' core
TTITLE8=Qualcosa arriverà
TTITLE9=Se mi vuoi
TTITLE10=Je so pazzo
TTITLE11=Santa Teresa
TTITLE12=Gente distratta
TTITLE13=Tempo di cambiare
TTITLE14=A me me piace o Blues
TTITLE15=Sarà
TTITLE16=Tutta n'ata storia
TTITLE17=Yes I know
EXTD=
EXTT0=
EXTT1=
EXTT2=
EXTT3=
EXTT4=
EXTT5=
EXTT6=
EXTT7=
EXTT8=
EXTT9=
EXTT10=
EXTT11=
EXTT12=
EXTT13=
EXTT14=
EXTT15=
EXTT16=
EXTT17=
PLAYORDER=
